# xmcd
#
# Track frame offsets: 
#        150
#        12627
#        22329
#        32092
#        43230
#        53628
#        63470
#        73406
#        84953
#        98745
#        109379
#        119884
#        130892
#        144412
#        156183
#        167261
#        179091
#        191101
#        201838
#        214888
#
# Disc length: 3033 seconds
#
# Revision: 1
# Processed by: cddbd v1.5.2PL0 Copyright (c) Steve Scherf et al.
# Submitted via: ExactAudioCopy v1.3
#
DISCID=380bd714
DTITLE=Hank Thompson, 1979 - Hank Thompson_20 Greatest Hits (Gusto, 19
DTITLE=79)
DYEAR=2005
DGENRE=Country
TTITLE0=The Wild Side Of Life
TTITLE1=A Six Pack To Go
TTITLE2=Rub-A-Dub-Dub
TTITLE3=On Tap, In The Can Or In The Bottole
TTITLE4=Wake Up Irene
TTITLE5=Cab Driver
TTITLE6=Humpty Dumpty Heart
TTITLE7=Smokey The Bar
TTITLE8=Blackboard Of My Heart
TTITLE9=The Older The Violin The Sweeter The Music
TTITLE10=The New Green Light
TTITLE11=Oklahoma Hills
TTITLE12=Yesterday's Girl
TTITLE13=Who Left The Door To Heaven Open
TTITLE14=Squaws Along The Yukon
TTITLE15=I've Come Awful Close
TTITLE16=Tears Are Only Rain
TTITLE17=Honky Tonk Girl
TTITLE18=We've Gone Too Far
TTITLE19=Anybody's Girl
EXTD=YEAR: 2005
EXTT0=
EXTT1=
EXTT2=
EXTT3=
EXTT4=
EXTT5=
EXTT6=
EXTT7=
EXTT8=
EXTT9=
EXTT10=
EXTT11=
EXTT12=
EXTT13=
EXTT14=
EXTT15=
EXTT16=
EXTT17=
EXTT18=
EXTT19=
PLAYORDER=
